<?xml version="1.0" encoding="utf-8"?>
<!-- Generator: Adobe Illustrator 23.0.1, SVG Export Plug-In . SVG Version: 6.00 Build 0)  -->
<svg version="1.1" id="Capa_1" xmlns="http://www.w3.org/2000/svg" xmlns:xlink="http://www.w3.org/1999/xlink" x="0px" y="0px"
	 viewBox="0 0 50.2 32.89" style="enable-background:new 0 0 50.2 32.89;" xml:space="preserve">
<style type="text/css">
	.st0{fill:#F7F7F7;}
	.st1{fill:#FFFFFF;}
	.st2{fill:none;stroke:#E8E8E8;}
	.st3{fill:#4E4E4E;}
	.st4{fill:#911730;}
	.st5{fill:#EBEBEB;}
	.st6{fill:#E8E8E8;}
	.st7{fill:#1F1F1F;}
	.st8{fill:#F00031;}
	.st9{fill:#73AF00;}
	.st10{fill:#F5F5F5;}
	.st11{fill:#FF4B55;}
	.st12{fill:#FFD250;}
	.st13{fill:#00C3A0;}
	.st14{fill:#00AADC;}
	.st15{fill:#732D37;}
	.st16{fill:#AAD264;}
	.st17{fill:#874150;}
	.st18{fill:#783C46;}
	.st19{fill:#FFE15A;}
	.st20{fill:#FFB478;}
	.st21{fill:#9B4B5A;}
	.st22{fill:#D1D1D1;}
	.st23{fill:#ACACAC;}
	.st24{fill:#E6E6E6;}
	.st25{fill:none;stroke:#D1D1D1;}
	.st26{fill:none;stroke:#D8D8D8;}
	.st27{fill-rule:evenodd;clip-rule:evenodd;fill:none;}
	.st28{clip-path:url(#SVGID_26_);fill:none;stroke:#D1D1D1;}
	.st29{fill:#909090;}
	.st30{fill:url(#);}
</style>
<g>
	<path class="st9" d="M16.73,32.89H0.87C0.39,32.89,0,32.5,0,32.02V0.87C0,0.39,0.39,0,0.87,0h15.87V32.89z"/>
	<rect x="16.73" y="0" class="st10" width="16.73" height="32.89"/>
	<path class="st11" d="M49.33,32.89H33.47V0h15.87c0.48,0,0.87,0.39,0.87,0.87v31.16C50.2,32.5,49.81,32.89,49.33,32.89z"/>
	<polygon class="st12" points="26.59,17.22 25.1,17.97 25.1,18.71 25.85,18.71 	"/>
	<path class="st13" d="M25.1,20.58c-0.21,0-0.37-0.17-0.37-0.37v-1.49c0-0.21,0.17-0.37,0.37-0.37c0.21,0,0.37,0.17,0.37,0.37v1.49
		C25.47,20.41,25.31,20.58,25.1,20.58z"/>
	<path class="st13" d="M25.1,19.08c-1.47,0-2.88-0.57-3.99-1.59c-0.15-0.14-0.16-0.38-0.02-0.53c0.14-0.15,0.38-0.16,0.53-0.02
		c0.97,0.9,2.2,1.39,3.48,1.39c1.28,0,2.51-0.49,3.48-1.39c0.15-0.14,0.39-0.13,0.53,0.02c0.14,0.15,0.13,0.39-0.02,0.53
		C27.98,18.52,26.57,19.08,25.1,19.08z"/>
	<path class="st14" d="M25.1,20.58c-0.96,0-1.88-0.28-2.68-0.81l0.41-0.62c1.35,0.89,3.19,0.89,4.53,0l0.41,0.62
		C26.98,20.3,26.06,20.58,25.1,20.58z"/>
	<polygon class="st15" points="24.51,15.54 23.68,16.81 23.54,17.23 25.69,16.74 	"/>
	<path class="st16" d="M22.82,17.64c-0.99,0-2.17-0.83-2.48-2.68l0.74-0.12c0.26,1.54,1.21,2.06,1.78,2.06
		c0.17,0,0.36-0.06,0.37-0.19c0.02-0.15,0.02-0.18-0.37-0.31c-0.21-0.07-0.45-0.15-0.62-0.35c-0.68-0.78,0.24-1.6,0.69-2
		c0.08-0.07,0.11-0.13,0.1-0.15c-0.02-0.06-0.17-0.16-0.34-0.16c-0.47,0-0.83-0.27-0.94-0.7c-0.11-0.45,0.1-0.92,0.49-1.12
		l0.34,0.66c-0.09,0.05-0.13,0.18-0.1,0.28c0.01,0.04,0.03,0.13,0.21,0.13c0.46,0,0.89,0.27,1.03,0.64c0.06,0.16,0.15,0.57-0.3,0.97
		c-0.49,0.44-0.78,0.77-0.62,0.95c0.04,0.04,0.19,0.1,0.3,0.13c0.34,0.11,0.96,0.33,0.87,1.11c-0.06,0.49-0.49,0.83-1.09,0.85
		C22.85,17.64,22.83,17.64,22.82,17.64z"/>
	<path class="st17" d="M25.85,13.49c0,0,0.75-1.49-0.75-2.24c0,0,5.22-0.75,4.48,5.97l0,0c-0.49-0.39-1.22-1.11-1.48-1.68
		l-2.25-1.31V13.49z"/>
	<path class="st15" d="M25.1,14.98l3.73,2.24c0,0,0,0-1.49,0.75l-2.24-2.24V14.98z"/>
	<path class="st18" d="M23.61,12.74c0.41,0,0.75,0.33,0.75,0.75l0,0c-0.45,0.45-0.56,1.13-0.27,1.69l0.17,0.34
		c0.07,0.14,0.16,0.27,0.27,0.38l2.07,2.07v-1.03c0-1.29-0.3-2.55-0.87-3.7c-0.38-0.76-1.15-1.24-2-1.24h-0.11L23.61,12.74
		L23.61,12.74L23.61,12.74z"/>
	<path class="st12" d="M23.61,11.99l-0.75,0.75v0.75c0,0,0.89-0.45,1.19-0.59c0.21-0.1,0.17-0.34,0.05-0.45
		C24.01,12.35,23.61,11.99,23.61,11.99z"/>
	<path class="st16" d="M25.1,22.07c-3.5,0-6.34-2.85-6.34-6.34h0.75c0,3.09,2.51,5.6,5.6,5.6c3.09,0,5.6-2.51,5.6-5.6h0.75
		C31.44,19.22,28.6,22.07,25.1,22.07z"/>
	<circle class="st19" cx="19.54" cy="17.94" r="0.51"/>
	<circle class="st19" cx="20.66" cy="19.73" r="0.51"/>
	<circle class="st19" cx="30.71" cy="17.94" r="0.51"/>
	<circle class="st19" cx="29.59" cy="19.73" r="0.51"/>
	<path class="st20" d="M25.47,20.95h-0.75c-0.41,0-0.75-0.33-0.75-0.75c0-0.41,0.33-0.75,0.75-0.75h0.75c0.41,0,0.75,0.33,0.75,0.75
		C26.22,20.62,25.88,20.95,25.47,20.95z"/>
	<path class="st21" d="M28.1,15.54c0.25,0.73,0.78,1.4,1.48,1.68l0,0c0.75-6.72-4.48-5.97-4.48-5.97
		C28.83,11.25,28.1,15.54,28.1,15.54z"/>
</g>
</svg>
