<?xml version="1.0" encoding="utf-8"?>
<!-- Generator: Adobe Illustrator 23.0.1, SVG Export Plug-In . SVG Version: 6.00 Build 0)  -->
<svg version="1.1" id="Capa_1" xmlns="http://www.w3.org/2000/svg" xmlns:xlink="http://www.w3.org/1999/xlink" x="0px" y="0px"
	 viewBox="0 0 50.46 50.46" style="enable-background:new 0 0 50.46 50.46;" xml:space="preserve">
<style type="text/css">
	.st0{fill:#E8E8E8;}
	.st1{fill:#89182F;}
	.st2{fill:#FFFFFF;}
</style>
<path class="st0" d="M132.92,24.59c0.28-0.27,0.37-0.66,0.25-1.03c-0.12-0.37-0.43-0.63-0.81-0.68l-3.39-0.49
	c-0.14-0.02-0.27-0.11-0.33-0.24l-1.52-3.07c-0.17-0.35-0.52-0.56-0.9-0.56c-0.38,0-0.73,0.21-0.9,0.56l-1.52,3.07
	c-0.06,0.13-0.19,0.22-0.33,0.24l-3.39,0.49c-0.38,0.06-0.69,0.32-0.81,0.68c-0.12,0.37-0.02,0.76,0.25,1.03l2.45,2.39
	c0.1,0.1,0.15,0.25,0.13,0.39l-0.58,3.38c-0.05,0.3,0.03,0.59,0.22,0.81c0.3,0.36,0.82,0.46,1.24,0.24l3.03-1.59
	c0.13-0.07,0.29-0.07,0.41,0l3.03,1.59c0.15,0.08,0.3,0.12,0.47,0.12c0.3,0,0.58-0.13,0.77-0.36c0.19-0.23,0.27-0.52,0.22-0.81
	l-0.58-3.38c-0.02-0.14,0.02-0.29,0.13-0.39L132.92,24.59z"/>
<g>
	<path class="st1" d="M25.23,0.23c1.64,0,3.27,0.16,4.88,0.48c1.61,0.32,3.17,0.79,4.69,1.42s2.96,1.4,4.32,2.31
		c1.36,0.91,2.63,1.95,3.79,3.11s2.2,2.42,3.11,3.79s1.68,2.81,2.31,4.32c0.63,1.52,1.1,3.08,1.42,4.69s0.48,3.24,0.48,4.88
		c0,1.64-0.16,3.27-0.48,4.88s-0.79,3.17-1.42,4.69c-0.63,1.52-1.4,2.96-2.31,4.32s-1.95,2.63-3.11,3.79s-2.42,2.2-3.79,3.11
		c-1.36,0.91-2.81,1.68-4.32,2.31s-3.08,1.1-4.69,1.42c-1.61,0.32-3.24,0.48-4.88,0.48c-1.64,0-3.27-0.16-4.88-0.48
		c-1.61-0.32-3.17-0.79-4.69-1.42c-1.52-0.63-2.96-1.4-4.32-2.31s-2.63-1.95-3.79-3.11c-1.16-1.16-2.2-2.42-3.11-3.79
		s-1.68-2.81-2.31-4.32s-1.1-3.08-1.42-4.69s-0.48-3.24-0.48-4.88c0-1.64,0.16-3.27,0.48-4.88s0.79-3.17,1.42-4.69
		s1.4-2.96,2.31-4.32s1.95-2.63,3.11-3.79c1.16-1.16,2.42-2.2,3.79-3.11c1.36-0.91,2.81-1.68,4.32-2.31s3.08-1.1,4.69-1.42
		C21.96,0.39,23.59,0.23,25.23,0.23z"/>
	<path class="st2" d="M26.22,24.02c-0.23,0.23-0.23,0.6,0,0.84c0.96,0.96,0.96,2.52,0,3.47l-5.03,5.03c-0.96,0.96-2.52,0.96-3.47,0
		l-0.76-0.76c-0.96-0.96-0.96-2.52,0-3.47l5.03-5.03c0.23-0.23,0.23-0.6,0-0.84c-0.23-0.23-0.6-0.23-0.84,0l-5.03,5.03
		c-0.69,0.69-1.07,1.6-1.07,2.57c0,0.97,0.38,1.89,1.07,2.57l0.76,0.76c0.71,0.71,1.64,1.06,2.57,1.06s1.86-0.35,2.57-1.06
		l5.03-5.03c1.42-1.42,1.42-3.73,0-5.14C26.83,23.79,26.46,23.79,26.22,24.02z"/>
	<path class="st2" d="M35.12,17.41l-0.76-0.76c-1.42-1.42-3.73-1.42-5.14,0l-5.03,5.03c-1.42,1.42-1.42,3.73,0,5.14
		c0.23,0.23,0.6,0.23,0.84,0c0.23-0.23,0.23-0.6,0-0.84c-0.96-0.96-0.96-2.52,0-3.47l5.03-5.03c0.96-0.96,2.52-0.96,3.47,0
		l0.76,0.76c0.96,0.96,0.96,2.52,0,3.47l-5.03,5.03c-0.23,0.23-0.23,0.6,0,0.84c0.11,0.11,0.27,0.18,0.42,0.18
		c0.15,0,0.3-0.06,0.42-0.18l5.03-5.03c0.69-0.69,1.07-1.6,1.07-2.57S35.81,18.1,35.12,17.41z"/>
</g>
</svg>
