<?xml version="1.0" encoding="utf-8"?>
<!-- Generator: Adobe Illustrator 23.0.1, SVG Export Plug-In . SVG Version: 6.00 Build 0)  -->
<svg version="1.1" id="Capa_1" xmlns="http://www.w3.org/2000/svg" xmlns:xlink="http://www.w3.org/1999/xlink" x="0px" y="0px"
	 viewBox="0 0 14.17 14.17" style="enable-background:new 0 0 14.17 14.17;" xml:space="preserve">
<style type="text/css">
	.st0{fill:#E8E8E8;}
</style>
<path class="st0" d="M114.78,6.45c0.28-0.27,0.37-0.66,0.25-1.03c-0.12-0.37-0.43-0.63-0.81-0.68l-3.39-0.49
	c-0.14-0.02-0.27-0.11-0.33-0.24l-1.52-3.07c-0.17-0.35-0.52-0.56-0.9-0.56c-0.38,0-0.73,0.21-0.9,0.56L105.67,4
	c-0.06,0.13-0.19,0.22-0.33,0.24l-3.39,0.49c-0.38,0.06-0.69,0.32-0.81,0.68c-0.12,0.37-0.02,0.76,0.25,1.03l2.45,2.39
	c0.1,0.1,0.15,0.25,0.13,0.39l-0.58,3.38c-0.05,0.3,0.03,0.59,0.22,0.81c0.3,0.36,0.82,0.46,1.24,0.24l3.03-1.59
	c0.13-0.07,0.29-0.07,0.41,0l3.03,1.59c0.15,0.08,0.3,0.12,0.47,0.12c0.3,0,0.58-0.13,0.77-0.36c0.19-0.23,0.27-0.52,0.22-0.81
	l-0.58-3.38c-0.02-0.14,0.02-0.29,0.13-0.39L114.78,6.45z"/>
<path class="st0" d="M13.78,6.46c0.28-0.27,0.37-0.66,0.25-1.03c-0.12-0.37-0.43-0.63-0.81-0.68L9.84,4.25
	C9.69,4.23,9.57,4.14,9.5,4.01L7.99,0.94c-0.17-0.35-0.52-0.56-0.9-0.56c-0.38,0-0.73,0.21-0.9,0.56L4.67,4.01
	C4.61,4.14,4.48,4.23,4.34,4.25L0.95,4.75C0.57,4.8,0.26,5.06,0.14,5.43C0.02,5.8,0.11,6.19,0.39,6.46l2.45,2.39
	C2.95,8.95,3,9.1,2.97,9.24l-0.58,3.38c-0.05,0.3,0.03,0.59,0.22,0.81c0.3,0.36,0.82,0.46,1.24,0.24l3.03-1.59
	c0.13-0.07,0.29-0.07,0.41,0l3.03,1.59c0.15,0.08,0.3,0.12,0.47,0.12c0.3,0,0.58-0.13,0.77-0.36c0.19-0.23,0.27-0.52,0.22-0.81
	L11.2,9.24c-0.02-0.14,0.02-0.29,0.13-0.39L13.78,6.46z"/>
</svg>
